<svg aria-hidden="true" viewBox="0 0 64 64" xmlns="http://www.w3.org/2000/svg">
  <rect fill="#111111" height="64" rx="14" width="64"/>
  <g fill="none" stroke="#ffffff" stroke-linecap="round" stroke-linejoin="round" stroke-width="4">
    <path d="M32 53c4 0 6.4 2.6 10 2.6 8.2 0 14-16.2 14-26.2 0-7.8-5.4-13.5-12.8-13.5-4.9 0-8.1 2.5-11.2 4.2-3.1-1.7-6.3-4.2-11.2-4.2C13.4 15.9 8 21.6 8 29.4c0 10 5.8 26.2 14 26.2 3.6 0 6-2.6 10-2.6Z"/>
    <path d="M31.5 15.5c.6-4.4 3.2-7.6 7.7-8.9"/>
  </g>
</svg>
